<svg width="20" height="21" viewBox="0 0 20 21" fill="none" xmlns="http://www.w3.org/2000/svg">
<path d="M5.625 3C4.17525 3 3 4.17525 3 5.625V14.375C3 15.8247 4.17525 17 5.625 17H14.375C15.8247 17 17 15.8247 17 14.375V5.625C17 4.17525 15.8247 3 14.375 3H5.625ZM3.875 5.625C3.875 4.6585 4.6585 3.875 5.625 3.875H14.375C15.3415 3.875 16.125 4.6585 16.125 5.625V14.375C16.125 15.3415 15.3415 16.125 14.375 16.125H5.625C4.6585 16.125 3.875 15.3415 3.875 14.375V5.625Z" fill="#424242"/>
<path d="M6.4 12H10.6C10.8209 12 11 12.2239 11 12.5C11 12.7455 10.8585 12.9496 10.6719 12.9919L10.6 13H6.4C6.17909 13 6 12.7761 6 12.5C6 12.2545 6.1415 12.0504 6.3281 12.0081L6.4 12H10.6H6.4Z" fill="#424242"/>
<path d="M6.4 8H13.6C13.8209 8 14 8.22386 14 8.5C14 8.74546 13.8585 8.94961 13.6719 8.99194L13.6 9H6.4C6.17909 9 6 8.77614 6 8.5C6 8.25454 6.1415 8.05039 6.3281 8.00806L6.4 8H13.6H6.4Z" fill="#424242"/>
</svg>
