<svg width="24" height="25" viewBox="0 0 24 25" fill="none" xmlns="http://www.w3.org/2000/svg">
<path d="M9.5 15.5H14.5C14.7761 15.5 15 15.7239 15 16C15 16.2455 14.8231 16.4496 14.5899 16.4919L14.5 16.5H9.5C9.22386 16.5 9 16.2761 9 16C9 15.7545 9.17688 15.5504 9.41012 15.5081L9.5 15.5H14.5H9.5ZM7.5 11.5H16.5C16.7761 11.5 17 11.7239 17 12C17 12.2455 16.8231 12.4496 16.5899 12.4919L16.5 12.5H7.5C7.22386 12.5 7 12.2761 7 12C7 11.7545 7.17688 11.5504 7.41012 11.5081L7.5 11.5H16.5H7.5ZM5.5 7.5H18.5C18.7761 7.5 19 7.72386 19 8C19 8.24546 18.8231 8.44961 18.5899 8.49194L18.5 8.5H5.5C5.22386 8.5 5 8.27614 5 8C5 7.75454 5.17688 7.55039 5.41012 7.50806L5.5 7.5H18.5H5.5Z" fill="#424242"/>
</svg>
