<svg width="14" height="15" viewBox="0 0 14 15" fill="none" xmlns="http://www.w3.org/2000/svg">
<path d="M5.5 0.5C8.53757 0.5 11 2.96243 11 6C11 7.33879 10.5217 8.56586 9.72656 9.51962L13.8536 13.6464C14.0488 13.8417 14.0488 14.1583 13.8536 14.3536C13.68 14.5271 13.4106 14.5464 13.2157 14.4114L13.1464 14.3536L9.01962 10.2266C8.06586 11.0217 6.83879 11.5 5.5 11.5C2.46243 11.5 0 9.03757 0 6C0 2.96243 2.46243 0.5 5.5 0.5ZM5.5 1.5C3.01472 1.5 1 3.51472 1 6C1 8.48528 3.01472 10.5 5.5 10.5C7.98528 10.5 10 8.48528 10 6C10 3.51472 7.98528 1.5 5.5 1.5Z" fill="#616161"/>
</svg>
