<svg width="12" height="13" viewBox="0 0 12 13" fill="none" xmlns="http://www.w3.org/2000/svg">
<path d="M8.34305 6.99256C8.55087 6.91831 8.69041 6.71987 8.69041 6.49925C8.69041 6.27862 8.55087 6.08019 8.3439 6.00594L7.39227 5.66284C6.9293 5.49675 6.50882 5.23024 6.16102 4.88244C5.81322 4.53464 5.54671 4.11416 5.38062 3.65119L5.03752 2.69956C5.00081 2.59832 4.93389 2.51079 4.84582 2.44882C4.75774 2.38684 4.65276 2.35341 4.54507 2.35305C4.32487 2.35305 4.12643 2.49216 4.05133 2.69956L3.70866 3.65119C3.5426 4.11425 3.27605 4.53479 2.92816 4.88261C2.58028 5.23042 2.15968 5.49688 1.69658 5.66284L0.745804 6.00594C0.537981 6.08062 0.398438 6.27862 0.398438 6.49925C0.398438 6.71987 0.537981 6.91788 0.74495 6.99256L1.69658 7.33566C2.15958 7.5017 2.58008 7.76819 2.92789 8.11599C3.2757 8.4638 3.54219 8.8843 3.70823 9.34731L4.05133 10.2994C4.12601 10.5063 4.32444 10.6454 4.54464 10.6454C4.76484 10.6454 4.96327 10.5059 5.03752 10.2989L5.38062 9.34731C5.54671 8.88433 5.81322 8.46386 6.16102 8.11606C6.50882 7.76826 6.9293 7.50175 7.39227 7.33566L8.34305 6.99256ZM6.87848 2.85617L7.36027 3.02985C7.56553 3.1035 7.75194 3.22166 7.90614 3.37586C8.06034 3.53006 8.1785 3.71648 8.25215 3.92174L8.42541 4.4031C8.49326 4.59172 8.67334 4.71846 8.87349 4.71846C9.07363 4.71846 9.25414 4.59172 9.32156 4.40353L9.49525 3.92174C9.56882 3.71644 9.68695 3.52998 9.84116 3.37577C9.99537 3.22156 10.1818 3.10342 10.3871 3.02985L10.8693 2.85617C11.0567 2.78832 11.1834 2.60866 11.1839 2.40937C11.1843 2.21009 11.0588 2.02958 10.8693 1.96045L10.3871 1.78676C10.1819 1.71306 9.99551 1.59488 9.84132 1.44069C9.68713 1.28649 9.56895 1.10011 9.49525 0.894876L9.32156 0.413087C9.28808 0.321204 9.22715 0.241842 9.14703 0.185765C9.06692 0.129688 8.97149 0.0996094 8.8737 0.0996094C8.77591 0.0996094 8.68048 0.129688 8.60036 0.185765C8.52025 0.241842 8.45932 0.321204 8.42584 0.413087L8.25215 0.894876C8.1785 1.10014 8.06034 1.28655 7.90614 1.44075C7.75194 1.59495 7.56553 1.71311 7.36027 1.78676L6.8772 1.96087C6.68943 2.02915 6.56312 2.20966 6.56354 2.40937C6.56397 2.60909 6.69071 2.78875 6.87848 2.85617ZM10.8689 10.1423L10.3871 9.96864C10.1819 9.89494 9.99551 9.77676 9.84132 9.62257C9.68713 9.46837 9.56895 9.28198 9.49525 9.07675L9.32156 8.59496C9.28798 8.50313 9.22699 8.42382 9.14684 8.3678C9.0667 8.31177 8.97127 8.28172 8.87349 8.28172C8.7757 8.28172 8.68027 8.31177 8.60013 8.3678C8.51998 8.42382 8.45899 8.50313 8.42541 8.59496L8.25173 9.07675C8.17816 9.28206 8.06002 9.46851 7.90581 9.62272C7.7516 9.77694 7.56514 9.89507 7.35984 9.96864L6.87848 10.1419C6.69029 10.2093 6.56354 10.3894 6.56312 10.5891C6.56269 10.7888 6.68858 10.9693 6.87805 11.038L7.35984 11.2117C7.56517 11.2852 7.75166 11.4034 7.90588 11.5576C8.06009 11.7118 8.17821 11.8983 8.25173 12.1036L8.42498 12.585C8.45835 12.6771 8.51929 12.7568 8.59951 12.813C8.67973 12.8693 8.77534 12.8996 8.87334 12.8996C8.97134 12.8997 9.06697 12.8695 9.14724 12.8133C9.22751 12.7571 9.28853 12.6775 9.32199 12.5854L9.49567 12.1036C9.56937 11.8984 9.68755 11.712 9.84175 11.5578C9.99594 11.4036 10.1823 11.2854 10.3876 11.2117L10.8715 11.0376C11.0588 10.9689 11.1847 10.7888 11.1843 10.5891C11.1839 10.3894 11.0567 10.2102 10.8689 10.1423Z" fill="#541980"/>
</svg>
