<?xml version="1.0" encoding="UTF-8"?>
<!DOCTYPE svg PUBLIC "-//W3C//DTD SVG 1.1//EN" "http://www.w3.org/Graphics/SVG/1.1/DTD/svg11.dtd">
<svg xmlns="http://www.w3.org/2000/svg" version="1.1" width="128px" height="128px" style="shape-rendering:geometricPrecision; text-rendering:geometricPrecision; image-rendering:optimizeQuality; fill-rule:evenodd; clip-rule:evenodd" xmlns:xlink="http://www.w3.org/1999/xlink">
<g><path style="opacity:1" fill="#fffefd" d="M -0.5,-0.5 C 42.1667,-0.5 84.8333,-0.5 127.5,-0.5C 127.5,42.1667 127.5,84.8333 127.5,127.5C 84.8333,127.5 42.1667,127.5 -0.5,127.5C -0.5,84.8333 -0.5,42.1667 -0.5,-0.5 Z"/></g>
<g><path style="opacity:1" fill="#ec2b13" d="M 56.5,38.5 C 62.9323,37.347 68.4323,39.0137 73,43.5C 74.5685,48.6253 73.0685,52.4586 68.5,55C 73.1842,53.8366 77.5176,54.6699 81.5,57.5C 82.5921,59.1831 83.2587,61.0164 83.5,63C 82.5328,67.4362 80.8661,71.6029 78.5,75.5C 80.6028,79.106 83.2694,82.2727 86.5,85C 80.7257,86.5377 75.7257,85.3711 71.5,81.5C 63.4538,87.5344 55.2872,87.8677 47,82.5C 42.9144,77.347 42.581,72.0137 46,66.5C 48.0425,64.2878 50.2092,62.2878 52.5,60.5C 46.0799,51.5089 47.4132,44.1756 56.5,38.5 Z"/></g>
<g><path style="opacity:1" fill="#f05140" d="M 38.5,40.5 C 36.1667,40.5 33.8333,40.5 31.5,40.5C 31.8283,52.3453 31.4949,64.012 30.5,75.5C 30.5,63.5 30.5,51.5 30.5,39.5C 33.3854,39.1936 36.0521,39.5269 38.5,40.5 Z"/></g>
<g><path style="opacity:1" fill="#eb2209" d="M 38.5,40.5 C 38.6665,52.8378 38.4999,65.1712 38,77.5C 33.6892,85.067 27.1892,87.9003 18.5,86C 10.6051,82.7106 7.60506,76.8772 9.5,68.5C 11.7294,67.4229 14.0628,66.7563 16.5,66.5C 16.3347,70.1817 16.5014,73.8484 17,77.5C 17.4652,78.9308 18.2986,80.0975 19.5,81C 25.3316,83.0252 28.9983,81.1919 30.5,75.5C 31.4949,64.012 31.8283,52.3453 31.5,40.5C 33.8333,40.5 36.1667,40.5 38.5,40.5 Z"/></g>
<g><path style="opacity:1" fill="#ec270e" d="M 110.5,40.5 C 112.833,40.5 115.167,40.5 117.5,40.5C 117.5,51.8333 117.5,63.1667 117.5,74.5C 116.238,82.5819 111.404,86.5819 103,86.5C 91.5513,85.4123 86.7179,79.2456 88.5,68C 91.1168,67.1785 93.7835,66.6785 96.5,66.5C 96.3345,70.5138 96.5012,74.5138 97,78.5C 100.524,82.0738 104.358,82.4072 108.5,79.5C 109,78.5 109.5,77.5 110,76.5C 110.5,64.5046 110.667,52.5046 110.5,40.5 Z"/></g>
<g><path style="opacity:1" fill="#f05241" d="M 110.5,40.5 C 112.948,39.5269 115.615,39.1936 118.5,39.5C 118.828,51.3453 118.495,63.012 117.5,74.5C 117.5,63.1667 117.5,51.8333 117.5,40.5C 115.167,40.5 112.833,40.5 110.5,40.5 Z"/></g>
<g><path style="opacity:1" fill="#fff7f6" d="M 57.5,42.5 C 65.1601,40.9957 68.3268,43.9957 67,51.5C 63.3333,59.5 59.6667,59.5 56,51.5C 55.068,48.1769 55.568,45.1769 57.5,42.5 Z"/></g>
<g><path style="opacity:1" fill="#fff8f8" d="M 63.5,58.5 C 73.6518,56.494 78.1518,60.494 77,70.5C 76.6924,71.3081 76.1924,71.9747 75.5,72.5C 70.5469,68.5556 66.5469,63.8889 63.5,58.5 Z"/></g>
<g><path style="opacity:1" fill="#fff9f8" d="M 53.5,63.5 C 59.3369,67.6606 64.6702,72.6606 69.5,78.5C 62.621,83.2231 56.7877,82.2231 52,75.5C 51.0805,71.2686 51.5805,67.2686 53.5,63.5 Z"/></g>
</svg>
